<svg width="151" height="150" viewBox="0 0 151 150" fill="none" xmlns="http://www.w3.org/2000/svg">
<g clip-path="url(#clip0_3504_91551)">
<path d="M76.2773 150C117.699 150 151.277 116.421 151.277 75C151.277 33.5786 117.699 0 76.2773 0C34.856 0 1.27734 33.5786 1.27734 75C1.27734 116.421 34.856 150 76.2773 150Z" fill="url(#paint0_linear_3504_91551)"/>
<path d="M119.94 2.93092C120.4 1.68969 122.155 1.68969 122.614 2.93092L125.286 10.1495C125.43 10.5397 125.738 10.8474 126.128 10.9918L133.346 13.6629C134.588 14.1222 134.588 15.8778 133.346 16.3371L126.128 19.0082C125.738 19.1526 125.43 19.4603 125.286 19.8505L122.614 27.0691C122.155 28.3103 120.4 28.3103 119.94 27.0691L117.269 19.8505C117.125 19.4603 116.817 19.1526 116.427 19.0082L109.208 16.3371C107.967 15.8778 107.967 14.1222 109.208 13.6629L116.427 10.9918C116.817 10.8474 117.125 10.5397 117.269 10.1495L119.94 2.93092Z" fill="url(#paint1_linear_3504_91551)"/>
<path d="M58.4545 15.5729C58.7372 14.809 59.8175 14.809 60.1002 15.5729L61.7439 20.0151C61.8328 20.2552 62.0221 20.4446 62.2623 20.5334L66.7045 22.1772C67.4683 22.4598 67.4683 23.5402 66.7045 23.8228L62.2623 25.4666C62.0221 25.5554 61.8328 25.7448 61.7439 25.9849L60.1002 30.4271C59.8175 31.191 58.7372 31.191 58.4545 30.4271L56.8108 25.9849C56.7219 25.7448 56.5326 25.5554 56.2924 25.4666L51.8502 23.8228C51.0864 23.5402 51.0864 22.4598 51.8502 22.1772L56.2924 20.5334C56.5326 20.4446 56.7219 20.2552 56.8108 20.0151L58.4545 15.5729Z" fill="url(#paint2_linear_3504_91551)"/>
<path d="M7.86594 54.2864C8.00726 53.9045 8.54743 53.9045 8.68875 54.2864L9.51063 56.5075C9.55506 56.6276 9.64973 56.7223 9.76981 56.7667L11.9909 57.5886C12.3728 57.7299 12.3728 58.2701 11.9909 58.4114L9.76981 59.2333C9.64973 59.2777 9.55506 59.3724 9.51063 59.4925L8.68875 61.7136C8.54743 62.0955 8.00726 62.0955 7.86594 61.7136L7.04405 59.4925C6.99962 59.3724 6.90495 59.2777 6.78488 59.2333L4.56378 58.4114C4.18187 58.2701 4.18187 57.7299 4.56378 57.5886L6.78488 56.7667C6.90495 56.7223 6.99962 56.6276 7.04405 56.5075L7.86594 54.2864Z" fill="url(#paint3_linear_3504_91551)"/>
<path d="M76.2773 150C117.699 150 151.277 116.421 151.277 75C151.277 33.5786 117.699 0 76.2773 0C34.856 0 1.27734 33.5786 1.27734 75C1.27734 116.421 34.856 150 76.2773 150Z" fill="url(#paint4_linear_3504_91551)"/>
<path d="M119.94 2.93092C120.4 1.68969 122.155 1.68969 122.614 2.93092L125.286 10.1495C125.43 10.5397 125.738 10.8474 126.128 10.9918L133.346 13.6629C134.588 14.1222 134.588 15.8778 133.346 16.3371L126.128 19.0082C125.738 19.1526 125.43 19.4603 125.286 19.8505L122.614 27.0691C122.155 28.3103 120.4 28.3103 119.94 27.0691L117.269 19.8505C117.125 19.4603 116.817 19.1526 116.427 19.0082L109.208 16.3371C107.967 15.8778 107.967 14.1222 109.208 13.6629L116.427 10.9918C116.817 10.8474 117.125 10.5397 117.269 10.1495L119.94 2.93092Z" fill="url(#paint5_linear_3504_91551)"/>
<path d="M58.4545 15.5729C58.7372 14.809 59.8175 14.809 60.1002 15.5729L61.7439 20.0151C61.8328 20.2552 62.0221 20.4446 62.2623 20.5334L66.7045 22.1772C67.4683 22.4598 67.4683 23.5402 66.7045 23.8228L62.2623 25.4666C62.0221 25.5554 61.8328 25.7448 61.7439 25.9849L60.1002 30.4271C59.8175 31.191 58.7372 31.191 58.4545 30.4271L56.8108 25.9849C56.7219 25.7448 56.5326 25.5554 56.2924 25.4666L51.8502 23.8228C51.0864 23.5402 51.0864 22.4598 51.8502 22.1772L56.2924 20.5334C56.5326 20.4446 56.7219 20.2552 56.8108 20.0151L58.4545 15.5729Z" fill="url(#paint6_linear_3504_91551)"/>
<path d="M7.86594 54.2864C8.00726 53.9045 8.54743 53.9045 8.68875 54.2864L9.51063 56.5075C9.55506 56.6276 9.64973 56.7223 9.76981 56.7667L11.9909 57.5886C12.3728 57.7299 12.3728 58.2701 11.9909 58.4114L9.76981 59.2333C9.64973 59.2777 9.55506 59.3724 9.51063 59.4925L8.68875 61.7136C8.54743 62.0955 8.00726 62.0955 7.86594 61.7136L7.04405 59.4925C6.99962 59.3724 6.90495 59.2777 6.78488 59.2333L4.56378 58.4114C4.18187 58.2701 4.18187 57.7299 4.56378 57.5886L6.78488 56.7667C6.90495 56.7223 6.99962 56.6276 7.04405 56.5075L7.86594 54.2864Z" fill="url(#paint7_linear_3504_91551)"/>
<mask id="mask0_3504_91551" style="mask-type:alpha" maskUnits="userSpaceOnUse" x="1" y="0" width="151" height="150">
<path d="M76.2773 150C117.699 150 151.277 116.421 151.277 75C151.277 33.5786 117.699 0 76.2773 0C34.856 0 1.27734 33.5786 1.27734 75C1.27734 116.421 34.856 150 76.2773 150Z" fill="url(#paint8_linear_3504_91551)"/>
</mask>
<g mask="url(#mask0_3504_91551)">
<rect x="47.7207" y="40" width="86.9044" height="128.117" rx="6" transform="rotate(5.74341 47.7207 40)" fill="url(#paint9_linear_3504_91551)"/>
<path d="M18.9854 64.3027C18.7415 60.932 21.3282 58.025 24.7043 57.8755L98.9479 54.5888C102.181 54.4456 104.945 56.8924 105.195 60.1191L113.998 173.646C114.255 176.962 111.766 179.854 108.449 180.094L33.7706 185.498C30.4656 185.737 27.5924 183.252 27.3532 179.947L18.9854 64.3027Z" fill="#DAF0FF"/>
<rect x="18.2773" y="60.3594" width="86.9044" height="128.117" rx="6" transform="rotate(-4.13865 18.2773 60.3594)" fill="url(#paint10_linear_3504_91551)"/>
<g filter="url(#filter0_f_3504_91551)">
<ellipse cx="50.7773" cy="99.5" rx="25.5" ry="20.5" fill="#0054E2"/>
</g>
<g filter="url(#filter1_d_3504_91551)">
<line x1="30.4085" y1="77.3851" x2="92.2468" y2="72.9105" stroke="#EFF7FF" stroke-width="6" stroke-linecap="round"/>
</g>
<g filter="url(#filter2_d_3504_91551)">
<line x1="31.5052" y1="92.5491" x2="93.3435" y2="88.0746" stroke="#EFF7FF" stroke-width="6" stroke-linecap="round"/>
</g>
<g filter="url(#filter3_d_3504_91551)">
<line x1="32.6028" y1="107.713" x2="94.4411" y2="103.239" stroke="#EFF7FF" stroke-width="6" stroke-linecap="round"/>
</g>
<g filter="url(#filter4_d_3504_91551)">
<line x1="33.8284" y1="122.455" x2="69.7345" y2="119.857" stroke="#EFF7FF" stroke-width="6" stroke-linecap="round"/>
</g>
<path d="M112.732 112.91L112.586 112.871C111.507 112.582 110.538 112.657 109.542 112.961C109.385 110.565 107.91 108.475 105.465 107.819C104.386 107.53 103.272 107.567 102.277 107.871C102.119 105.475 100.643 103.384 98.1984 102.729C97.2448 102.473 96.2941 102.477 95.3961 102.69L96.9101 97.04C97.7348 93.9625 96.0961 90.8495 93.0236 90.0262C89.951 89.2029 86.7918 91.0303 85.9672 94.1079L80.1706 115.741L77.7007 111.439C76.1111 108.681 72.1829 107.961 69.833 109.331C67.483 110.702 65.2634 114.133 67.1962 117.516L78.5602 137.251C78.7948 137.658 79.0754 138.02 79.3854 138.346C81.5934 141.436 84.4695 143.686 91.3335 145.525C107.014 149.727 110.753 141.581 113.574 131.053L116.56 119.908C117.385 116.83 115.805 113.733 112.732 112.91Z" fill="url(#paint11_linear_3504_91551)"/>
</g>
</g>
<defs>
<filter id="filter0_f_3504_91551" x="-34.7227" y="19" width="171" height="161" filterUnits="userSpaceOnUse" color-interpolation-filters="sRGB">
<feFlood flood-opacity="0" result="BackgroundImageFix"/>
<feBlend mode="normal" in="SourceGraphic" in2="BackgroundImageFix" result="shape"/>
<feGaussianBlur stdDeviation="30" result="effect1_foregroundBlur_3504_91551"/>
</filter>
<filter id="filter1_d_3504_91551" x="25.4082" y="69.9141" width="71.8389" height="14.4688" filterUnits="userSpaceOnUse" color-interpolation-filters="sRGB">
<feFlood flood-opacity="0" result="BackgroundImageFix"/>
<feColorMatrix in="SourceAlpha" type="matrix" values="0 0 0 0 0 0 0 0 0 0 0 0 0 0 0 0 0 0 127 0" result="hardAlpha"/>
<feOffset dy="2"/>
<feGaussianBlur stdDeviation="1"/>
<feComposite in2="hardAlpha" operator="out"/>
<feColorMatrix type="matrix" values="0 0 0 0 0.662745 0 0 0 0 0.756863 0 0 0 0 0.929412 0 0 0 1 0"/>
<feBlend mode="normal" in2="BackgroundImageFix" result="effect1_dropShadow_3504_91551"/>
<feBlend mode="normal" in="SourceGraphic" in2="effect1_dropShadow_3504_91551" result="shape"/>
</filter>
<filter id="filter2_d_3504_91551" x="26.5049" y="85.0781" width="71.8389" height="14.4688" filterUnits="userSpaceOnUse" color-interpolation-filters="sRGB">
<feFlood flood-opacity="0" result="BackgroundImageFix"/>
<feColorMatrix in="SourceAlpha" type="matrix" values="0 0 0 0 0 0 0 0 0 0 0 0 0 0 0 0 0 0 127 0" result="hardAlpha"/>
<feOffset dy="2"/>
<feGaussianBlur stdDeviation="1"/>
<feComposite in2="hardAlpha" operator="out"/>
<feColorMatrix type="matrix" values="0 0 0 0 0.662745 0 0 0 0 0.756863 0 0 0 0 0.929412 0 0 0 1 0"/>
<feBlend mode="normal" in2="BackgroundImageFix" result="effect1_dropShadow_3504_91551"/>
<feBlend mode="normal" in="SourceGraphic" in2="effect1_dropShadow_3504_91551" result="shape"/>
</filter>
<filter id="filter3_d_3504_91551" x="27.6025" y="100.242" width="71.8389" height="14.4688" filterUnits="userSpaceOnUse" color-interpolation-filters="sRGB">
<feFlood flood-opacity="0" result="BackgroundImageFix"/>
<feColorMatrix in="SourceAlpha" type="matrix" values="0 0 0 0 0 0 0 0 0 0 0 0 0 0 0 0 0 0 127 0" result="hardAlpha"/>
<feOffset dy="2"/>
<feGaussianBlur stdDeviation="1"/>
<feComposite in2="hardAlpha" operator="out"/>
<feColorMatrix type="matrix" values="0 0 0 0 0.662745 0 0 0 0 0.756863 0 0 0 0 0.929412 0 0 0 1 0"/>
<feBlend mode="normal" in2="BackgroundImageFix" result="effect1_dropShadow_3504_91551"/>
<feBlend mode="normal" in="SourceGraphic" in2="effect1_dropShadow_3504_91551" result="shape"/>
</filter>
<filter id="filter4_d_3504_91551" x="28.8281" y="116.859" width="45.9062" height="12.5938" filterUnits="userSpaceOnUse" color-interpolation-filters="sRGB">
<feFlood flood-opacity="0" result="BackgroundImageFix"/>
<feColorMatrix in="SourceAlpha" type="matrix" values="0 0 0 0 0 0 0 0 0 0 0 0 0 0 0 0 0 0 127 0" result="hardAlpha"/>
<feOffset dy="2"/>
<feGaussianBlur stdDeviation="1"/>
<feComposite in2="hardAlpha" operator="out"/>
<feColorMatrix type="matrix" values="0 0 0 0 0.662745 0 0 0 0 0.756863 0 0 0 0 0.929412 0 0 0 1 0"/>
<feBlend mode="normal" in2="BackgroundImageFix" result="effect1_dropShadow_3504_91551"/>
<feBlend mode="normal" in="SourceGraphic" in2="effect1_dropShadow_3504_91551" result="shape"/>
</filter>
<linearGradient id="paint0_linear_3504_91551" x1="76.2773" y1="0" x2="76.2773" y2="150" gradientUnits="userSpaceOnUse">
<stop stop-color="#CBE1FA"/>
<stop offset="1" stop-color="#5693EB"/>
</linearGradient>
<linearGradient id="paint1_linear_3504_91551" x1="121.277" y1="2" x2="121.277" y2="28" gradientUnits="userSpaceOnUse">
<stop stop-color="#3F88D8"/>
<stop offset="1" stop-color="#97B1F4"/>
</linearGradient>
<linearGradient id="paint2_linear_3504_91551" x1="59.2773" y1="15" x2="59.2773" y2="31" gradientUnits="userSpaceOnUse">
<stop stop-color="#3F88D8"/>
<stop offset="1" stop-color="#97B1F4"/>
</linearGradient>
<linearGradient id="paint3_linear_3504_91551" x1="8.27734" y1="54" x2="8.27734" y2="62" gradientUnits="userSpaceOnUse">
<stop stop-color="#3F88D8"/>
<stop offset="1" stop-color="#97B1F4"/>
</linearGradient>
<linearGradient id="paint4_linear_3504_91551" x1="76.2773" y1="0" x2="76.2773" y2="150" gradientUnits="userSpaceOnUse">
<stop stop-color="#CBE1FA"/>
<stop offset="1" stop-color="#5693EB"/>
</linearGradient>
<linearGradient id="paint5_linear_3504_91551" x1="121.277" y1="2" x2="121.277" y2="28" gradientUnits="userSpaceOnUse">
<stop stop-color="#3F88D8"/>
<stop offset="1" stop-color="#97B1F4"/>
</linearGradient>
<linearGradient id="paint6_linear_3504_91551" x1="59.2773" y1="15" x2="59.2773" y2="31" gradientUnits="userSpaceOnUse">
<stop stop-color="#3F88D8"/>
<stop offset="1" stop-color="#97B1F4"/>
</linearGradient>
<linearGradient id="paint7_linear_3504_91551" x1="8.27734" y1="54" x2="8.27734" y2="62" gradientUnits="userSpaceOnUse">
<stop stop-color="#3F88D8"/>
<stop offset="1" stop-color="#97B1F4"/>
</linearGradient>
<linearGradient id="paint8_linear_3504_91551" x1="76.2773" y1="0" x2="76.2773" y2="150" gradientUnits="userSpaceOnUse">
<stop stop-color="#CBE1FA"/>
<stop offset="1" stop-color="#5693EB"/>
</linearGradient>
<linearGradient id="paint9_linear_3504_91551" x1="91.0121" y1="38.0997" x2="96.6654" y2="109.891" gradientUnits="userSpaceOnUse">
<stop stop-color="#649EDF"/>
<stop offset="1" stop-color="#2344CA"/>
</linearGradient>
<linearGradient id="paint10_linear_3504_91551" x1="108.453" y1="63.8245" x2="18.2214" y2="186.139" gradientUnits="userSpaceOnUse">
<stop stop-color="#E8F0FF"/>
<stop offset="1" stop-color="#A6C4FC"/>
</linearGradient>
<linearGradient id="paint11_linear_3504_91551" x1="121.143" y1="102.806" x2="84.303" y2="143.598" gradientUnits="userSpaceOnUse">
<stop stop-color="#FFC114"/>
<stop offset="1" stop-color="#F29A00"/>
</linearGradient>
<clipPath id="clip0_3504_91551">
<rect width="150" height="150" fill="white" transform="translate(0.277344)"/>
</clipPath>
</defs>
</svg>
