<svg width="151" height="150" viewBox="0 0 151 150" fill="none" xmlns="http://www.w3.org/2000/svg">
    <g clip-path="url(#clip0_3854_94389)">
        <path fill-rule="evenodd" clip-rule="evenodd"
            d="M118.58 26.25V41.5573H89.9621V132.07H30.064V46.216C30.064 35.1891 39.0031 26.25 50.0301 26.25H118.58Z"
            fill="url(#paint0_linear_3854_94389)" />
        <path fill-rule="evenodd" clip-rule="evenodd"
            d="M107.932 48.2109H127.233V35.8986C127.233 30.5689 122.912 26.2483 117.582 26.2483C112.253 26.2483 107.932 30.5689 107.932 35.8986V48.2109Z"
            fill="url(#paint1_linear_3854_94389)" />
        <path fill-rule="evenodd" clip-rule="evenodd"
            d="M18.7512 110.109H99.9464V132.072H30.7308C24.1147 132.072 18.7512 126.709 18.7512 120.092V110.109Z"
            fill="#FFE6BB" />
        <path fill-rule="evenodd" clip-rule="evenodd"
            d="M88.6328 26.25H107.933V122.42C107.933 127.749 103.613 132.07 98.2831 132.07C92.9534 132.07 88.6328 127.749 88.6328 122.42V26.25Z"
            fill="url(#paint2_linear_3854_94389)" />
        <path
            d="M58.0181 46.5234H42.0453C40.9426 46.5234 40.0487 47.4173 40.0487 48.52C40.0487 49.6227 40.9426 50.5166 42.0453 50.5166H58.0181C59.1208 50.5166 60.0147 49.6227 60.0147 48.52C60.0147 47.4173 59.1208 46.5234 58.0181 46.5234Z"
            fill="#FFF7E8" />
        <path
            d="M74.6565 56.6604H42.0453C40.9426 56.6604 40.0487 57.5543 40.0487 58.657C40.0487 59.7597 40.9426 60.6536 42.0453 60.6536H74.6565C75.7592 60.6536 76.6531 59.7597 76.6531 58.657C76.6531 57.5543 75.7592 56.6604 74.6565 56.6604Z"
            fill="#FFF7E8" />
        <path
            d="M74.6565 66.7973H42.0453C40.9426 66.7973 40.0487 67.6912 40.0487 68.7939C40.0487 69.8966 40.9426 70.7905 42.0453 70.7905H74.6565C75.7592 70.7905 76.6531 69.8966 76.6531 68.7939C76.6531 67.6912 75.7592 66.7973 74.6565 66.7973Z"
            fill="#FFF7E8" />
        <path
            d="M74.6565 76.9342H42.0453C40.9426 76.9342 40.0487 77.8281 40.0487 78.9308C40.0487 80.0335 40.9426 80.9274 42.0453 80.9274H74.6565C75.7592 80.9274 76.6531 80.0335 76.6531 78.9308C76.6531 77.8281 75.7592 76.9342 74.6565 76.9342Z"
            fill="#FFF7E8" />
        <path
            d="M74.6565 87.0711H42.0453C40.9426 87.0711 40.0487 87.965 40.0487 89.0677C40.0487 90.1704 40.9426 91.0643 42.0453 91.0643H74.6565C75.7592 91.0643 76.6531 90.1704 76.6531 89.0677C76.6531 87.965 75.7592 87.0711 74.6565 87.0711Z"
            fill="#FFF7E8" />
        <rect width="8.10954" height="22.3012" rx="2"
            transform="matrix(-0.707107 -0.707107 -0.707107 0.707107 28.0901 96.8594)"
            fill="url(#paint3_linear_3854_94389)" />
        <path
            d="M35.2568 98.7772C26.9866 98.7772 20.2823 92.0728 20.2823 83.8026C20.2823 75.5324 26.9866 68.8281 35.2568 68.8281C43.527 68.8281 50.2313 75.5324 50.2313 83.8026C50.2313 92.0728 43.527 98.7772 35.2568 98.7772Z"
            fill="white" fill-opacity="0.515652" />
        <path fill-rule="evenodd" clip-rule="evenodd"
            d="M35.2569 74.9065C40.168 74.9065 44.1492 78.8877 44.1492 83.7989C44.1492 88.71 40.168 92.6912 35.2569 92.6912C30.3457 92.6912 26.3645 88.71 26.3645 83.7989C26.3645 78.8877 30.3457 74.9065 35.2569 74.9065ZM56.3135 83.7989C56.3135 72.1696 46.8861 62.7422 35.2569 62.7422C23.6276 62.7422 14.2002 72.1696 14.2002 83.7989C14.2002 95.4281 23.6276 104.856 35.2569 104.856C46.8861 104.856 56.3135 95.4281 56.3135 83.7989Z"
            fill="url(#paint4_linear_3854_94389)" />
        <path
            d="M120.116 109.372C120.116 121.688 110.132 131.673 97.8152 131.673C85.4986 131.673 75.514 121.688 75.514 109.372C75.514 97.0549 85.4986 87.0703 97.8152 87.0703C110.132 87.0703 120.116 97.0549 120.116 109.372Z"
            fill="#FFEED3" />
        <path
            d="M104.762 119.779C103.178 121.363 100.611 121.363 99.0275 119.779C97.444 118.196 97.444 115.628 99.0275 114.045L106.195 106.877C107.779 105.294 110.346 105.294 111.93 106.877C113.513 108.461 113.513 111.028 111.93 112.611L104.762 119.779Z"
            fill="#FA9712" />
        <path
            d="M99.7399 106.156C98.1564 104.573 98.1564 102.005 99.7399 100.422C101.323 98.8385 103.891 98.8385 105.474 100.422L111.93 106.877C113.513 108.461 113.513 111.028 111.93 112.611C110.346 114.195 107.779 114.195 106.195 112.611L99.7399 106.156Z"
            fill="#FA9712" />
        <path
            d="M83.6229 109.719C83.6229 107.48 85.4383 105.664 87.6777 105.664H107.952C110.191 105.664 112.006 107.48 112.006 109.719C112.006 111.958 110.191 113.774 107.952 113.774H87.6777C85.4383 113.774 83.6229 111.958 83.6229 109.719Z"
            fill="#FA9712" />
        <path fill-rule="evenodd" clip-rule="evenodd"
            d="M142.198 45.029C141.937 44.6833 141.399 44.4948 140.547 44.4961C139.758 44.4974 139.191 44.6968 138.869 45.0791C138.437 45.591 138.263 46.2985 138.418 46.939C138.551 47.4947 139.006 47.9849 139.683 48.3057C140.325 48.6099 140.942 48.6246 141.393 48.3843C141.785 48.1759 142.087 47.6742 142.28 46.8529C142.489 45.9586 142.457 45.3713 142.198 45.029ZM140.544 42.4688C141.532 42.4672 142.946 42.6555 143.816 43.8068C144.677 44.9466 144.472 46.3822 144.254 47.3148C144.027 48.2842 143.541 49.5382 142.346 50.1741C141.163 50.8032 139.844 50.6254 138.815 50.1378C137.778 49.6463 136.767 48.7464 136.447 47.4136C136.136 46.125 136.486 44.7604 137.319 43.7724C138.201 42.7259 139.498 42.4704 140.544 42.4688Z"
            fill="#FFC3AB" />
        <path
            d="M124.17 84.0256C129.494 85.6519 133.694 89.8523 135.321 95.1762C136.947 89.8525 141.148 85.6519 146.472 84.0256C141.148 82.3993 136.947 78.1988 135.321 72.875C133.695 78.1988 129.494 82.3993 124.17 84.0256Z"
            fill="url(#paint5_linear_3854_94389)" />
        <path
            d="M0.5 71.8653C2.9199 72.6046 4.82914 74.5138 5.56846 76.9338C6.30778 74.5139 8.21703 72.6046 10.6369 71.8653C8.21703 71.1261 6.30778 69.2168 5.56846 66.7969C4.8293 69.2168 2.9199 71.1261 0.5 71.8653Z"
            fill="url(#paint6_linear_3854_94389)" />
        <circle cx="3.04108" cy="3.04108" r="3.04108" transform="matrix(-1 0 0 1 116.061 8)"
            fill="url(#paint7_linear_3854_94389)" />
    </g>
    <defs>
        <linearGradient id="paint0_linear_3854_94389" x1="74.322" y1="26.25" x2="74.322" y2="132.07"
            gradientUnits="userSpaceOnUse">
            <stop stop-color="#FFD799" />
            <stop offset="1" stop-color="#FFBA40" />
        </linearGradient>
        <linearGradient id="paint1_linear_3854_94389" x1="117.582" y1="48.2109" x2="117.582"
            y2="26.2483" gradientUnits="userSpaceOnUse">
            <stop offset="1" stop-color="#DE892C" />
        </linearGradient>
        <linearGradient id="paint2_linear_3854_94389" x1="98.2831" y1="27.8252" x2="98.2831"
            y2="132.07" gradientUnits="userSpaceOnUse">
            <stop stop-color="#FFD798" />
            <stop offset="1" stop-color="#FFB93E" />
        </linearGradient>
        <linearGradient id="paint3_linear_3854_94389" x1="4.05477" y1="0" x2="4.05477" y2="22.3012"
            gradientUnits="userSpaceOnUse">
            <stop stop-color="#FF8217" />
            <stop offset="1" stop-color="#FFAB62" />
        </linearGradient>
        <linearGradient id="paint4_linear_3854_94389" x1="45.1263" y1="72.2424" x2="23.687"
            y2="96.1453" gradientUnits="userSpaceOnUse">
            <stop stop-color="#FFAB62" />
            <stop offset="1" stop-color="#FF7600" />
        </linearGradient>
        <linearGradient id="paint5_linear_3854_94389" x1="135.321" y1="72.875" x2="135.321"
            y2="95.1762" gradientUnits="userSpaceOnUse">
            <stop stop-color="#FF9291" />
            <stop offset="1" stop-color="#FF6C6A" />
        </linearGradient>
        <linearGradient id="paint6_linear_3854_94389" x1="5.56846" y1="66.7969" x2="5.56846"
            y2="76.9338" gradientUnits="userSpaceOnUse">
            <stop stop-color="#FF9291" />
            <stop offset="1" stop-color="#FF6C6A" />
        </linearGradient>
        <linearGradient id="paint7_linear_3854_94389" x1="3.04108" y1="0" x2="3.04108" y2="6.08215"
            gradientUnits="userSpaceOnUse">
            <stop stop-color="#FF7261" stop-opacity="0" />
            <stop offset="0.885417" stop-color="#FF7261" />
        </linearGradient>
        <clipPath id="clip0_3854_94389">
            <rect width="150" height="150" fill="white" transform="translate(0.5)" />
        </clipPath>
    </defs>
</svg>