<svg width="126" height="126" viewBox="0 0 126 126" fill="none" xmlns="http://www.w3.org/2000/svg">
<path d="M63 0.5C50.6387 0.5 38.555 4.16556 28.2769 11.0331C17.9988 17.9007 9.98804 27.6619 5.25756 39.0823C0.52708 50.5027 -0.710628 63.0693 1.70095 75.1931C4.11252 87.3169 10.0651 98.4534 18.8059 107.194C27.5466 115.935 38.6831 121.887 50.8069 124.299C62.9307 126.711 75.4974 125.473 86.9178 120.742C98.3381 116.012 108.099 108.001 114.967 97.7231C121.834 87.4451 125.5 75.3613 125.5 63C125.5 54.7924 123.883 46.6651 120.743 39.0823C117.602 31.4994 112.998 24.6095 107.194 18.8058C101.391 13.0022 94.5006 8.39845 86.9178 5.25753C79.3349 2.11661 71.2077 0.5 63 0.5V0.5ZM63 100.5C61.7639 100.5 60.5555 100.133 59.5277 99.4467C58.4999 98.7599 57.6988 97.7838 57.2258 96.6418C56.7527 95.4997 56.629 94.2431 56.8701 93.0307C57.1113 91.8183 57.7065 90.7046 58.5806 89.8306C59.4547 88.9565 60.5683 88.3612 61.7807 88.1201C62.9931 87.8789 64.2498 88.0027 65.3918 88.4757C66.5338 88.9488 67.51 89.7499 68.1967 90.7777C68.8835 91.8055 69.25 93.0139 69.25 94.25C69.25 95.9076 68.5916 97.4973 67.4195 98.6694C66.2473 99.8415 64.6576 100.5 63 100.5ZM69.25 68.25V75.5C69.25 77.1576 68.5916 78.7473 67.4195 79.9194C66.2473 81.0915 64.6576 81.75 63 81.75C61.3424 81.75 59.7527 81.0915 58.5806 79.9194C57.4085 78.7473 56.75 77.1576 56.75 75.5V63C56.75 61.3424 57.4085 59.7527 58.5806 58.5806C59.7527 57.4085 61.3424 56.75 63 56.75C64.8542 56.75 66.6668 56.2002 68.2085 55.17C69.7502 54.1399 70.9518 52.6757 71.6614 50.9627C72.371 49.2496 72.5566 47.3646 72.1949 45.546C71.8332 43.7275 70.9403 42.057 69.6292 40.7459C68.318 39.4348 66.6476 38.5419 64.829 38.1801C63.0104 37.8184 61.1254 38.0041 59.4124 38.7136C57.6993 39.4232 56.2351 40.6248 55.205 42.1665C54.1749 43.7082 53.625 45.5208 53.625 47.375C53.625 49.0326 52.9666 50.6223 51.7944 51.7944C50.6223 52.9665 49.0326 53.625 47.375 53.625C45.7174 53.625 44.1277 52.9665 42.9556 51.7944C41.7835 50.6223 41.125 49.0326 41.125 47.375C41.1087 43.3144 42.2229 39.3294 44.3429 35.8661C46.463 32.4028 49.5052 29.598 53.1289 27.7657C56.7526 25.9333 60.8148 25.1458 64.8608 25.4912C68.9067 25.8366 72.7766 27.3014 76.0373 29.7216C79.2979 32.1417 81.8206 35.4216 83.3228 39.1942C84.8251 42.9667 85.2476 47.0829 84.5431 51.082C83.8387 55.0811 82.035 58.8051 79.334 61.8372C76.633 64.8693 73.1414 67.0898 69.25 68.25V68.25Z" fill="#154472"/>
</svg>
